<svg width="14" height="14" viewBox="0 0 14 14" fill="none" xmlns="http://www.w3.org/2000/svg">
<path d="M11.2857 12.1429C11.2857 12.6162 11.6695 13 12.1429 13C12.6162 13 13 12.6162 13 12.1429C13 11.6695 12.6162 11.2857 12.1429 11.2857C11.6695 11.2857 11.2857 11.6695 11.2857 12.1429Z" stroke="#00328E" stroke-width="2" stroke-linecap="round" stroke-linejoin="round"/>
<path d="M6.14286 12.1429C6.14286 12.6162 6.52661 13 7 13C7.47339 13 7.85714 12.6162 7.85714 12.1429C7.85714 11.6695 7.47339 11.2857 7 11.2857C6.52661 11.2857 6.14286 11.6695 6.14286 12.1429Z" stroke="#00328E" stroke-width="2" stroke-linecap="round" stroke-linejoin="round"/>
<path d="M1 12.1429C1 12.6162 1.38376 13 1.85714 13C2.33053 13 2.71429 12.6162 2.71429 12.1429C2.71429 11.6695 2.33053 11.2857 1.85714 11.2857C1.38376 11.2857 1 11.6695 1 12.1429Z" stroke="#00328E" stroke-width="2" stroke-linecap="round" stroke-linejoin="round"/>
<path d="M11.2857 7C11.2857 7.47339 11.6695 7.85714 12.1429 7.85714C12.6162 7.85714 13 7.47339 13 7C13 6.52661 12.6162 6.14286 12.1429 6.14286C11.6695 6.14286 11.2857 6.52661 11.2857 7Z" stroke="#00328E" stroke-width="2" stroke-linecap="round" stroke-linejoin="round"/>
<path d="M6.14286 7C6.14286 7.47339 6.52661 7.85714 7 7.85714C7.47339 7.85714 7.85714 7.47339 7.85714 7C7.85714 6.52661 7.47339 6.14286 7 6.14286C6.52661 6.14286 6.14286 6.52661 6.14286 7Z" stroke="#00328E" stroke-width="2" stroke-linecap="round" stroke-linejoin="round"/>
<path d="M1 7C1 7.47339 1.38376 7.85714 1.85714 7.85714C2.33053 7.85714 2.71429 7.47339 2.71429 7C2.71429 6.52661 2.33053 6.14286 1.85714 6.14286C1.38376 6.14286 1 6.52661 1 7Z" stroke="#00328E" stroke-width="2" stroke-linecap="round" stroke-linejoin="round"/>
<path d="M11.2857 1.85714C11.2857 2.33053 11.6695 2.71429 12.1429 2.71429C12.6162 2.71429 13 2.33053 13 1.85714C13 1.38376 12.6162 1 12.1429 1C11.6695 1 11.2857 1.38376 11.2857 1.85714Z" stroke="#00328E" stroke-width="2" stroke-linecap="round" stroke-linejoin="round"/>
<path d="M6.14286 1.85714C6.14286 2.33053 6.52661 2.71429 7 2.71429C7.47339 2.71429 7.85714 2.33053 7.85714 1.85714C7.85714 1.38376 7.47339 1 7 1C6.52661 1 6.14286 1.38376 6.14286 1.85714Z" stroke="#00328E" stroke-width="2" stroke-linecap="round" stroke-linejoin="round"/>
<path d="M1 1.85714C1 2.33053 1.38376 2.71429 1.85714 2.71429C2.33053 2.71429 2.71429 2.33053 2.71429 1.85714C2.71429 1.38376 2.33053 1 1.85714 1C1.38376 1 1 1.38376 1 1.85714Z" stroke="#00328E" stroke-width="2" stroke-linecap="round" stroke-linejoin="round"/>
</svg>
