<svg width="16" height="16" viewBox="0 0 16 16" fill="none" xmlns="http://www.w3.org/2000/svg">
<path d="M5.66667 5.66667V3.48904C5.66667 2.61785 5.66667 2.18193 5.83621 1.84918C5.98535 1.55648 6.22315 1.31868 6.51584 1.16955C6.84859 1 7.28451 1 8.15571 1H12.5113C13.3825 1 13.8178 1 14.1506 1.16955C14.4433 1.31868 14.6815 1.55648 14.8306 1.84918C15.0002 2.18193 15.0002 2.61752 15.0002 3.48872V7.84429C15.0002 8.71549 15.0002 9.15108 14.8306 9.48383C14.6815 9.77653 14.443 10.0148 14.1503 10.164C13.8179 10.3333 13.383 10.3333 12.5135 10.3333H10.3333M5.66667 5.66667H3.48904C2.61785 5.66667 2.18193 5.66667 1.84918 5.83621C1.55648 5.98535 1.31868 6.22315 1.16955 6.51584C1 6.84859 1 7.28451 1 8.15571V12.5113C1 13.3825 1 13.8178 1.16955 14.1506C1.31868 14.4433 1.55648 14.6815 1.84918 14.8306C2.1816 15 2.61699 15 3.48648 15H7.84721C8.7167 15 9.15148 15 9.48391 14.8306C9.77661 14.6815 10.0148 14.443 10.164 14.1503C10.3333 13.8179 10.3333 13.383 10.3333 12.5135V10.3333M5.66667 5.66667H7.8446C8.71579 5.66667 9.15116 5.66667 9.48391 5.83621C9.77661 5.98535 10.0148 6.22315 10.164 6.51584C10.3333 6.84827 10.3333 7.28367 10.3333 8.15318L10.3333 10.3333" stroke="#00328E" stroke-width="2" stroke-linecap="round" stroke-linejoin="round"/>
</svg>
