<svg width="9" height="10" viewBox="0 0 9 10" fill="none" xmlns="http://www.w3.org/2000/svg">
<path d="M4.23687 9.99999C4.18618 10.0003 4.13594 9.99057 4.08901 9.97141C4.04209 9.95224 3.99941 9.924 3.96342 9.8883L1.24052 7.19236C0.847402 6.80183 0.535409 6.3374 0.322508 5.8258C0.109606 5.31421 0 4.76555 0 4.21142C0 3.65729 0.109606 3.10864 0.322508 2.59704C0.535409 2.08545 0.847402 1.62101 1.24052 1.23048C2.03853 0.442105 3.1151 0 4.23687 0C5.35864 0 6.4352 0.442105 7.23321 1.23048C7.62634 1.62101 7.93833 2.08545 8.15123 2.59704C8.36413 3.10864 8.47374 3.65729 8.47374 4.21142C8.47374 4.76555 8.36413 5.31421 8.15123 5.8258C7.93833 6.3374 7.62634 6.80183 7.23321 7.19236L4.51031 9.8883C4.47433 9.924 4.43165 9.95224 4.38472 9.97141C4.3378 9.99057 4.28756 10.0003 4.23687 9.99999ZM4.23687 0.756768C3.31765 0.754511 2.43518 1.11747 1.78356 1.76582C1.46264 2.08474 1.20795 2.46398 1.03415 2.88172C0.860356 3.29945 0.770883 3.74743 0.770883 4.19987C0.770883 4.65231 0.860356 5.10029 1.03415 5.51802C1.20795 5.93576 1.46264 6.315 1.78356 6.63392L4.23687 9.07182L6.69018 6.63392C7.0111 6.315 7.26579 5.93576 7.43959 5.51802C7.61338 5.10029 7.70285 4.65231 7.70285 4.19987C7.70285 3.74743 7.61338 3.29945 7.43959 2.88172C7.26579 2.46398 7.0111 2.08474 6.69018 1.76582C6.03855 1.11747 5.15608 0.754511 4.23687 0.756768Z" fill="#00328E"/>
<path d="M4.23689 6.14862C3.85603 6.14862 3.48372 6.03569 3.16705 5.82409C2.85037 5.61249 2.60355 5.31175 2.4578 4.95987C2.31205 4.608 2.27392 4.22082 2.34822 3.84727C2.42252 3.47373 2.60593 3.13061 2.87524 2.8613C3.14455 2.59199 3.48767 2.40858 3.86121 2.33428C4.23475 2.25998 4.62194 2.29811 4.97381 2.44386C5.32568 2.58961 5.62643 2.83643 5.83803 3.15311C6.04962 3.46978 6.16256 3.84209 6.16256 4.22295C6.16256 4.73367 5.95968 5.22347 5.59855 5.58461C5.23741 5.94574 4.74761 6.14862 4.23689 6.14862ZM4.23689 3.06755C4.00837 3.06755 3.78499 3.13531 3.59498 3.26227C3.40498 3.38923 3.25689 3.56968 3.16944 3.7808C3.08199 3.99192 3.05911 4.22423 3.10369 4.44836C3.14827 4.67249 3.25831 4.87836 3.4199 5.03995C3.58148 5.20153 3.78736 5.31157 4.01148 5.35615C4.23561 5.40074 4.46792 5.37786 4.67904 5.29041C4.89017 5.20296 5.07062 5.05486 5.19757 4.86486C5.32453 4.67485 5.39229 4.45147 5.39229 4.22295C5.39229 3.91652 5.27056 3.62264 5.05388 3.40596C4.8372 3.18928 4.54332 3.06755 4.23689 3.06755Z" fill="#00328E"/>
</svg>
