<svg width="19" height="16" viewBox="0 0 19 16" fill="none" xmlns="http://www.w3.org/2000/svg">
<path d="M14.0667 15C14.0667 13.4536 11.9773 12.2 9.4 12.2C6.82267 12.2 4.73333 13.4536 4.73333 15M17.8 12.2003C17.8 11.0522 16.6482 10.0654 15 9.63333M1 12.2003C1 11.0522 2.15182 10.0654 3.8 9.63333M15 5.88703C15.5728 5.37433 15.9333 4.62927 15.9333 3.8C15.9333 2.2536 14.6797 1 13.1333 1C12.4162 1 11.762 1.2696 11.2667 1.71297M3.8 5.88703C3.22717 5.37433 2.86667 4.62927 2.86667 3.8C2.86667 2.2536 4.12027 1 5.66667 1C6.3838 1 7.03796 1.2696 7.53333 1.71297M9.4 9.4C7.8536 9.4 6.6 8.1464 6.6 6.6C6.6 5.0536 7.8536 3.8 9.4 3.8C10.9464 3.8 12.2 5.0536 12.2 6.6C12.2 8.1464 10.9464 9.4 9.4 9.4Z" stroke="#00328E" stroke-width="2" stroke-linecap="round" stroke-linejoin="round"/>
</svg>
